<svg width="18" height="18" viewBox="0 0 18 18" fill="none" xmlns="http://www.w3.org/2000/svg">
<path d="M17.2723 3.69643H13.5V2.04943C13.5 0.920571 12.5794 0 11.4506 0H6.54942C5.42057 0 4.5 0.920571 4.5 2.04943V3.69643H0.727714C0.535379 3.69642 0.350864 3.77256 0.214501 3.9082C0.0781389 4.04384 0.00101945 4.22795 0 4.42028C0 4.81757 0.327857 5.14285 0.727714 5.14285H2.57143V15.5494C2.57035 15.8714 2.63322 16.1904 2.75637 16.4879C2.87952 16.7854 3.06052 17.0555 3.28885 17.2826C3.51588 17.5109 3.78598 17.6919 4.08349 17.815C4.381 17.9382 4.70001 18.0011 5.022 18H12.978C13.3 18.0011 13.619 17.9382 13.9165 17.815C14.214 17.6919 14.4841 17.5109 14.7111 17.2826C14.9395 17.0555 15.1205 16.7854 15.2436 16.4879C15.3668 16.1904 15.4296 15.8714 15.4286 15.5494V5.14285H17.2723C17.6721 5.14285 18 4.81757 18 4.419C17.9986 4.22689 17.9214 4.04311 17.785 3.90775C17.6487 3.77238 17.4644 3.69642 17.2723 3.69643ZM5.94642 2.04943C5.94642 1.71514 6.21642 1.44643 6.54942 1.44643H11.4506C11.7848 1.44643 12.0536 1.71643 12.0536 2.04943V3.69643H5.94642V2.04943ZM13.9821 15.5494C13.9821 16.1036 13.5321 16.5536 12.978 16.5536H5.022C4.75579 16.5532 4.50058 16.4473 4.31234 16.2591C4.1241 16.0708 4.01819 15.8156 4.01785 15.5494V5.14285H13.9821V15.5494Z" fill="#FF2F2B"/>
</svg>
