<svg width="19" height="17" viewBox="0 0 19 17" fill="none" xmlns="http://www.w3.org/2000/svg">
<path d="M12.529 0.480729L12.6019 0.549932L15.8207 3.7688C16.1502 4.09805 16.341 4.54101 16.3538 5.0066C16.3667 5.47219 16.2007 5.92501 15.8899 6.27196L15.8212 6.3448L6.42957 15.736C6.11335 16.0522 5.69184 16.241 5.24538 16.2664L5.14203 16.2691H1.46742C1.1191 16.2691 0.783938 16.1361 0.530471 15.8972C0.277005 15.6583 0.124389 15.3315 0.103839 14.9838L0.101563 14.9033V11.2291C0.101538 10.7817 0.266197 10.35 0.564132 10.0162L0.635157 9.9411L10.0263 0.549932C10.3556 0.220682 10.7985 0.0300755 11.264 0.017289C11.7295 0.00450246 12.1822 0.170508 12.529 0.481184V0.480729ZM17.8281 14.4111C17.9488 14.4111 18.0646 14.4591 18.15 14.5444C18.2354 14.6298 18.2834 14.7456 18.2834 14.8664V15.7769C18.2834 15.8367 18.2716 15.8959 18.2487 15.9512C18.2258 16.0064 18.1923 16.0566 18.15 16.0989C18.1078 16.1412 18.0576 16.1747 18.0023 16.1976C17.9471 16.2205 17.8879 16.2322 17.8281 16.2322H10.5435C10.4837 16.2322 10.4245 16.2205 10.3693 16.1976C10.3141 16.1747 10.2639 16.1412 10.2216 16.0989C10.1793 16.0566 10.1458 16.0064 10.1229 15.9512C10.1 15.8959 10.0882 15.8367 10.0882 15.7769V14.8664C10.0882 14.7456 10.1362 14.6298 10.2216 14.5444C10.307 14.4591 10.4228 14.4111 10.5435 14.4111H17.8281ZM8.73832 4.41303L1.9227 11.2282V14.4471L5.14203 14.4475L11.9576 7.63189L8.73832 4.41212V4.41303ZM17.8281 10.7688C17.8879 10.7688 17.9471 10.7806 18.0023 10.8035C18.0576 10.8263 18.1078 10.8599 18.15 10.9022C18.1923 10.9444 18.2258 10.9946 18.2487 11.0499C18.2716 11.1051 18.2834 11.1643 18.2834 11.2241V12.1347C18.2834 12.2554 18.2354 12.3712 18.15 12.4566C18.0646 12.542 17.9488 12.59 17.8281 12.59H14.1858C14.0651 12.59 13.9493 12.542 13.8639 12.4566C13.7785 12.3712 13.7305 12.2554 13.7305 12.1347V11.2241C13.7305 11.1643 13.7423 11.1051 13.7652 11.0499C13.7881 10.9946 13.8216 10.9444 13.8639 10.9022C13.9062 10.8599 13.9563 10.8263 14.0116 10.8035C14.0668 10.7806 14.126 10.7688 14.1858 10.7688H17.8281ZM11.3139 1.83748L10.0268 3.12503L13.2456 6.34389L14.5332 5.0568L11.3143 1.83748H11.3139Z" fill="#222429"/>
</svg>
