<svg width="24" height="24" viewBox="0 0 24 24" fill="none" xmlns="http://www.w3.org/2000/svg">
  <path d="M22.56 12.25C22.56 11.47 22.49 10.72 22.36 10H12V14.26H17.92C17.66 15.63 16.86 16.8 15.68 17.58V20.29H19.27C21.29 18.39 22.56 15.59 22.56 12.25Z" fill="#4285F4"/>
  <path d="M12 23C14.97 23 17.46 22.01 19.27 20.29L15.68 17.58C14.7 18.25 13.45 18.65 12 18.65C9.13003 18.65 6.72003 16.73 5.82003 14.1H2.11003V16.89C3.90003 20.58 7.65003 23 12 23Z" fill="#34A853"/>
  <path d="M5.82001 14.1C5.58001 13.45 5.45001 12.75 5.45001 12C5.45001 11.25 5.58001 10.55 5.82001 9.9V7.11H2.11001C1.40001 8.58 1 10.25 1 12C1 13.75 1.40001 15.42 2.11001 16.89L5.82001 14.1Z" fill="#FBBC05"/>
  <path d="M12 5.35C13.55 5.35 14.95 5.9 16.08 7.01L19.28 3.81C17.45 2.09 14.97 1 12 1C7.65003 1 3.90003 3.42 2.11003 7.11L5.82003 9.9C6.72003 7.27 9.13003 5.35 12 5.35Z" fill="#EA4335"/>
</svg> 