<svg width="18" height="19" viewBox="0 0 18 19" fill="none" xmlns="http://www.w3.org/2000/svg">
<g clip-path="url(#clip0_1010_1404)">
<path d="M17.8702 8.82501C17.7202 8.56248 14.7575 2.74951 9.01948 2.74951C3.28152 2.74951 0.318776 8.56248 0.168764 8.82501C-0.0562546 9.23754 -0.0562546 9.76258 0.168764 10.1751C0.318776 10.4376 3.28152 16.2506 9.01948 16.2506C14.7575 16.2506 17.7202 10.4376 17.8702 10.1751C18.0577 9.76258 18.0577 9.23754 17.8702 8.82501ZM9.01948 14.7505C4.14409 14.7505 1.51887 9.50006 1.51887 9.50006C1.51887 9.50006 4.14409 4.24963 9.01948 4.24963C13.8949 4.24963 16.5201 9.50006 16.5201 9.50006C16.5201 9.50006 13.8949 14.7505 9.01948 14.7505Z" fill="#252326"/>
<path d="M9.01978 6.5C7.36964 6.5 6.01953 7.85011 6.01953 9.50024C6.01953 11.1504 7.36964 12.5005 9.01978 12.5005C10.6699 12.5005 12.02 11.1504 12.02 9.50024C12.02 7.85011 10.6699 6.5 9.01978 6.5ZM9.01978 11.0004C8.19471 11.0004 7.51965 10.3253 7.51965 9.50024C7.51965 8.67518 8.19471 8.00012 9.01978 8.00012C9.84484 8.00012 10.5199 8.67518 10.5199 9.50024C10.5199 10.3253 9.84484 11.0004 9.01978 11.0004Z" fill="#252326"/>
</g>
<defs>
<clipPath id="clip0_1010_1404">
<rect width="18" height="18" fill="white" transform="translate(0 0.5)"/>
</clipPath>
</defs>
</svg>
