<svg width="18" height="19" viewBox="0 0 18 19" fill="none" xmlns="http://www.w3.org/2000/svg">
<path d="M13.2946 3.7081L2.35237 5.54223C2.32466 5.54687 2.29868 5.55878 2.27709 5.57675C2.25549 5.59472 2.23905 5.61809 2.22945 5.64449C2.21985 5.67089 2.21743 5.69937 2.22244 5.72701C2.22745 5.75465 2.2397 5.78047 2.25795 5.80183L3.61535 7.38993C3.65802 7.43988 3.71515 7.47535 3.77884 7.49145C3.84253 7.50755 3.90965 7.50349 3.97094 7.47982L13.3364 3.86043C13.3548 3.8534 13.3699 3.83978 13.3788 3.82221C13.3878 3.80464 13.3898 3.78438 13.3846 3.76538C13.3794 3.74637 13.3673 3.72998 13.3507 3.71939C13.3341 3.7088 13.3141 3.70478 13.2947 3.7081H13.2946ZM11.2488 15.3536L15.7123 4.32646C15.724 4.29745 15.7269 4.26561 15.7206 4.23496C15.7143 4.20431 15.6991 4.17621 15.6768 4.1542C15.6546 4.13219 15.6263 4.11724 15.5956 4.11125C15.5649 4.10525 15.5331 4.10847 15.5042 4.1205L5.11047 8.45449C5.07528 8.46915 5.04413 8.49205 5.01963 8.52126C4.99514 8.55047 4.97802 8.58514 4.96971 8.62234C4.96141 8.65955 4.96216 8.69821 4.97191 8.73506C4.98166 8.77191 5.00012 8.80589 5.02573 8.83412L10.9842 15.4007C11.0023 15.4206 11.0251 15.4355 11.0505 15.4442C11.0759 15.4529 11.1031 15.455 11.1296 15.4503C11.156 15.4455 11.1808 15.4342 11.2017 15.4173C11.2225 15.4004 11.2388 15.3784 11.2488 15.3536H11.2488ZM4.68323 15.2817C4.41031 15.4349 4.06567 15.3734 4.00823 15.3663C3.5725 15.3128 3.31124 14.9155 3.3648 14.4797L3.05086 8.72717L1.43823 6.79926C0.843835 6.16948 0.87446 5.18021 1.50662 4.58962C1.74982 4.36265 2.05873 4.21865 2.38894 4.17833L15.2466 2.42497C16.1077 2.31945 16.8926 2.92852 16.9997 3.78545C17.0364 4.079 16.9886 4.37684 16.862 4.64429L12.5082 15.822C12.1385 16.6026 11.2023 16.9363 10.4173 16.5675C10.2388 16.4836 10.0776 16.3669 9.94214 16.2235L7.08741 13.0808C7.07162 13.0919 6.27023 13.8256 4.68323 15.2818V15.2817ZM4.28623 10.2378L4.47688 13.5419C4.47863 13.5724 4.48916 13.6017 4.50719 13.6264C4.52521 13.651 4.54998 13.67 4.5785 13.6809C4.60703 13.6918 4.6381 13.6943 4.668 13.688C4.69789 13.6817 4.72533 13.6669 4.74702 13.6454L6.06831 12.3342C6.12519 12.2778 6.15862 12.2019 6.16188 12.1218C6.16515 12.0418 6.13802 11.9635 6.08593 11.9026L4.56526 10.1255C4.54367 10.1002 4.51469 10.0824 4.48242 10.0745C4.45014 10.0666 4.4162 10.069 4.38537 10.0814C4.35454 10.0938 4.32839 10.1156 4.3106 10.1437C4.29282 10.1717 4.28429 10.2047 4.28623 10.2378Z" fill="#252326"/>
</svg>
