<svg width="16" height="17" viewBox="0 0 16 17" fill="none" xmlns="http://www.w3.org/2000/svg">
<g clip-path="url(#clip0_1010_1409)">
<path d="M1.45455 16.5C1.06878 16.5 0.698807 16.3468 0.426026 16.074C0.153246 15.8012 0 15.4312 0 15.0455V1.95455C0 1.56878 0.153246 1.19881 0.426026 0.926026C0.698807 0.653246 1.06878 0.5 1.45455 0.5H10.5978C10.9836 0.500082 11.3535 0.653383 11.6262 0.926182L15.5738 4.87382C15.8466 5.14653 15.9999 5.51644 16 5.90218V15.0455C16 15.4312 15.8468 15.8012 15.574 16.074C15.3012 16.3468 14.9312 16.5 14.5455 16.5H1.45455ZM10.5949 1.95455H1.45455V15.0455H3.63636V9.22727H12.3636V15.0455H14.5455V5.90509L10.5949 1.95455ZM10.9091 10.6818H5.09091V15.0455H10.9091V10.6818ZM10.1818 12.1364V13.5909H5.81818V12.1364H10.1818ZM8.43636 3.40909V4.86364H3.63636V3.40909H8.43636Z" fill="#252326"/>
</g>
<defs>
<clipPath id="clip0_1010_1409">
<rect width="16" height="16" fill="white" transform="translate(0 0.5)"/>
</clipPath>
</defs>
</svg>
